<?xml version="1.0" standalone="no"?>
<!DOCTYPE svg PUBLIC "-//W3C//DTD SVG 20010904//EN"
 "http://www.w3.org/TR/2001/REC-SVG-20010904/DTD/svg10.dtd">
<svg version="1.0" xmlns="http://www.w3.org/2000/svg"
 width="255.000000pt" height="255.000000pt" viewBox="0 0 255.000000 255.000000"
 preserveAspectRatio="xMidYMid meet">
<metadata>
Created by potrace 1.14, written by Peter Selinger 2001-2017
</metadata>
<g transform="translate(0.000000,255.000000) scale(0.100000,-0.100000)"
fill="#000000" stroke="none">
<path d="M981 2475 c-341 -77 -616 -287 -765 -584 -87 -173 -120 -326 -114
-531 l3 -127 -37 -35 c-45 -42 -58 -73 -58 -138 0 -43 4 -52 36 -78 l35 -29
-26 -39 c-17 -25 -25 -49 -23 -69 3 -26 8 -30 34 -33 18 -2 48 4 68 12 l36 15
13 -32 c13 -31 13 -32 -24 -49 -45 -20 -73 -59 -73 -104 0 -44 25 -70 94 -95
l58 -21 4 -59 c5 -76 31 -113 81 -117 32 -3 38 -8 61 -55 52 -107 172 -193
326 -234 50 -13 103 -17 225 -17 191 1 321 25 547 101 79 26 148 47 153 46 6
-1 27 -6 47 -11 57 -15 111 3 153 49 19 22 35 48 35 59 0 13 14 29 37 43 147
85 287 189 379 282 85 85 108 116 145 190 43 87 44 90 44 189 0 68 -6 122 -18
165 l-19 63 25 27 c55 59 72 133 42 190 -13 27 -13 29 10 39 18 8 25 20 25 40
0 34 -46 101 -82 120 -18 10 -24 20 -20 37 6 35 -26 122 -61 161 -44 51 -76
64 -155 64 -69 0 -70 0 -83 32 -22 53 -122 179 -203 256 -132 125 -280 208
-458 258 -80 23 -117 27 -263 30 -123 3 -188 0 -234 -11z m486 -69 c170 -47
337 -141 438 -247 l50 -52 -50 41 c-108 88 -266 166 -415 207 -110 29 -155 32
-164 10 -23 -61 -243 -60 -279 1 -4 8 -18 14 -30 14 -46 0 -215 -53 -303 -94
-92 -44 -228 -130 -253 -160 -8 -10 -24 -22 -35 -28 -38 -19 56 72 138 133 95
72 201 127 315 163 126 40 171 45 341 41 128 -3 171 -8 247 -29z m-42 -161
c19 -20 35 -42 35 -50 0 -27 -37 -16 -69 20 -57 66 -28 91 34 30z m-161 -107
c32 -43 44 -88 23 -88 -17 0 -64 56 -67 80 -7 49 10 52 44 8z m-592 -49 c-3
-37 -34 -87 -48 -79 -14 8 -6 70 12 97 21 33 40 24 36 -18z m176 -20 c4 -44
-13 -89 -33 -89 -11 0 -15 11 -15 40 0 78 42 121 48 49z m222 22 c5 -11 10
-40 10 -65 0 -59 -24 -63 -41 -7 -19 64 5 120 31 72z m1311 -409 c-18 -33 -38
-43 -148 -69 -179 -42 -213 -53 -233 -73 -19 -19 -20 -19 -20 -2 0 35 36 52
176 82 76 16 159 41 184 54 25 13 46 24 48 25 1 0 -2 -7 -7 -17z m-383 -295
c-8 -66 -36 -117 -74 -133 -47 -20 -54 -17 -17 6 41 25 60 55 75 118 15 63 22
67 16 9z m460 -47 c-11 -32 -49 -65 -106 -95 -54 -27 -48 -11 15 38 32 24 67
54 77 66 25 28 27 27 14 -9z m-820 -116 c-9 -19 -9 -36 0 -70 28 -103 0 -200
-68 -238 l-35 -20 21 25 c49 55 59 89 59 199 0 101 6 130 25 130 5 0 4 -12 -2
-26z m632 -204 c0 -19 -40 -30 -143 -39 -138 -12 -168 -28 -254 -136 -37 -46
-69 -82 -71 -81 -6 6 118 164 149 190 37 32 79 43 194 51 50 4 97 11 105 16
19 11 20 11 20 -1z m-1201 -100 c-45 -53 -87 -83 -130 -94 -22 -5 -17 4 35 57
65 68 91 86 119 87 14 0 9 -11 -24 -50z m1346 13 c-15 -80 -96 -205 -192 -294
-65 -61 -198 -159 -285 -211 -68 -41 -70 -41 -98 -25 -15 10 -41 17 -57 17
-22 0 -7 12 73 53 253 134 474 323 542 465 20 42 26 41 17 -5z m-775 -307 c22
-62 23 -97 3 -104 -9 -2 -13 8 -13 30 0 19 -8 52 -19 74 -28 59 -34 115 -20
181 l13 58 7 -90 c4 -51 16 -116 29 -149z m-182 127 c8 -53 -146 -159 -180
-125 -9 9 -8 12 5 12 20 0 87 57 87 75 0 7 10 24 21 39 26 33 62 32 67 -1z
m-973 -412 c99 -91 234 -133 435 -134 181 -1 326 25 538 94 51 17 96 28 99 25
4 -4 12 -22 18 -41 l12 -34 -136 -45 c-421 -138 -783 -124 -949 37 -47 45 -87
111 -77 127 9 15 15 13 60 -29z m1333 2 c2 -11 -4 -23 -12 -26 -12 -5 -16 1
-16 24 0 35 23 36 28 2z"/>
</g>
</svg>
